# xmcd
#
# Track frame offsets: 
#        150
#        13050
#        20233
#        32828
#        45575
#        58100
#        70868
#        83543
#        97103
#        110651
#        124694
#        131690
#        142822
#        153976
#        164816
#        174706
#        184806
#        194546
#        210360
#        234436
#        249451
#        271042
#        291512
#        310134
#        311261
#        312537
#        324560
#        335010
#        345834
#
# Disc length: 4755 seconds
#
# Revision: 0
# Processed by: cddbd v1.5.2PL0 Copyright (c) Steve Scherf et al.
# Submitted via: ExactAudioCopy v0.95b3
#
DISCID=aa12911d
DTITLE=Elvis Presley  - American Sound - Disc 04 - PC 84 
DYEAR=1900
DGENRE=
TTITLE0=Take 23 - master
TTITLE1=Vocal only
TTITLE2=+strings and brass March 18th
TTITLE3=Mono remix
TTITLE4=Quad remix
TTITLE5=1980 Remix
TTITLE6=1987 Remix
TTITLE7=2002 Front Remix
TTITLE8=2002 Rear Remix
TTITLE9=2002 Remix
TTITLE10=Rubberneckin' - Take 1 - false start
TTITLE11=Rubberneckin' - Take 2 - master
TTITLE12=Rubberneckin'  +backing vocals Jan 24th
TTITLE13=Rubberneckin' +brass March 19th)
TTITLE14=Rubberneckin' +intro backing vocals March 25th
TTITLE15=Rubberneckin' - Mono remix
TTITLE16=Rubberneckin' - 1987 remix
TTITLE17=Rubberneckin' - 2003 radio remix
TTITLE18=Rubberneckin' - 2003 12-remix
TTITLE19=Hey Jude - Takes 1 and 5 spliced
TTITLE20=Hey Jude - Take 7 - master
TTITLE21=Hey Jude  +brass March 18th - strings March 19th - backing voca
TTITLE21=ls March 25th
TTITLE22=Hey Jude - 1980 remix
TTITLE23=From A Jack To A King - Take 1 - false start
TTITLE24=From A Jack To A King - Take 2 - false start
TTITLE25=From A Jack To A King - Take 3 - complete
TTITLE26=From A Jack To A King - Take 4 - 2 false starts and breakdown
TTITLE27=From A Jack To A King - Take 5 - master
TTITLE28=From A Jack To A King  +strings and brass May 7th  +splice
EXTD=
EXTT0=
EXTT1=
EXTT2=
EXTT3=
EXTT4=
EXTT5=
EXTT6=
EXTT7=
EXTT8=
EXTT9=
EXTT10=
EXTT11=
EXTT12=
EXTT13=
EXTT14=
EXTT15=
EXTT16=
EXTT17=
EXTT18=
EXTT19=
EXTT20=
EXTT21=
EXTT22=
EXTT23=
EXTT24=
EXTT25=
EXTT26=
EXTT27=
EXTT28=
PLAYORDER=
